PathFileType	4	(X/Y/Z)	Walk3.trc
DataRate	CameraRate	NumFrames	NumMarkers	Units	OrigDataRate	OrigDataStartFrame	OrigNumFrames
200.000000	200.000000	4	59	mm	200.000000	429	545
Frame#	Times		LBHD		C7		T10		RBack		LPSI		RPSI		RCAR		LElbowM		RElbowM		LUA1		LLFC		LFHD		RFA1		LWRU		LCAR		RTB1		LACR1		RUA1		CLAV		RTH2		RTH3		LWRR		RToe		RACR1		RTB3		RTB4		RWRU		RCAL		RMT5		RBHD		RTH4		RLFC		LFA1		RTH1		RWRR		RMT1		RFHD		LTH1		STRN		LTH3		LTH4		RTB2		RElbow		RMMAL		LElbow		LTH2		LTB3		RASI		LASI		LCAL		LMT1		LTB2		LLMAL		RLMAL		LMT5		LToe		LTB1		LMMAL		LTB4
			X1	Y1	Z1	X2	Y2	Z2	X3	Y3	Z3	X4	Y4	Z4	X5	Y5	Z5	X6	Y6	Z6	X7	Y7	Z7	X8	Y8	Z8	X9	Y9	Z9	X10	Y10	Z10	X11	Y11	Z11	X12	Y12	Z12	X13	Y13	Z13	X14	Y14	Z14	X15	Y15	Z15	X16	Y16	Z16	X17	Y17	Z17	X18	Y18	Z18	X19	Y19	Z19	X20	Y20	Z20	X21	Y21	Z21	X22	Y22	Z22	X23	Y23	Z23	X24	Y24	Z24	X25	Y25	Z25	X26	Y26	Z26	X27	Y27	Z27	X28	Y28	Z28	X29	Y29	Z29	X30	Y30	Z30	X31	Y31	Z31	X32	Y32	Z32	X33	Y33	Z33	X34	Y34	Z34	X35	Y35	Z35	X36	Y36	Z36	X37	Y37	Z37	X38	Y38	Z38	X39	Y39	Z39	X40	Y40	Z40	X41	Y41	Z41	X42	Y42	Z42	X43	Y43	Z43	X44	Y44	Z44	X45	Y45	Z45	X46	Y46	Z46	X47	Y47	Z47	X48	Y48	Z48	X49	Y49	Z49	X50	Y50	Z50	X51	Y51	Z51	X52	Y52	Z52	X53	Y53	Z53	X54	Y54	Z54	X55	Y55	Z55	X56	Y56	Z56	X57	Y57	Z57	X58	Y58	Z58	X59	Y59	Z59

429	2.145	265.74	1472.4	-47.678	234.05	1339.3	23.512	193.36	1072.1	7.5259	211.07	1237.1	152.94	176.47	868.77	-41.911	166.09	889.09	54.349	531.5	773.2	276.85	216.95	963.32	-187.84	314.51	927.56	210.79	292.19	1111.4	-232.96	474.23	452.01	-126.93	438.83	1467.8	-26.983	406.66	859.97	279.79	302.57	757.84	-296.48	355.64	728.77	-318.43	235.22	322.07	56.085	307.96	1279.7	-144.85	343.86	1118.5	247.68	357.13	1256.8	22.495	345.67	632.43	158.99	256.05	545.44	167.2	370.32	761.98	-265.82	284.95	24.003	16.98	311.29	1273	173.26	188.65	142.17	49.824	205.97	234.49	56.417	473.02	773.07	256.51	77.701	48.297	77.444	213.67	32.481	77.081	265.93	1479.8	75.882	276.15	635.47	193.57	247.16	445.72	146.39	271.52	876.35	-284.95	297.05	718.2	221.58	527.87	815.12	228.69	225.97	42.811	18.26	444.42	1476.6	49.712	375.41	726.12	-184.93	415.74	1149.8	15.536	458.54	563.36	-139.1	419.71	645.94	-160.59	191.43	234.62	127.18	353.59	975.87	284.7	135.03	77.089	15.086	244.7	998.21	-254.52	468.86	685.49	-122.7	591.31	184.84	-39.781	320.91	892.09	170.35	379.78	848.25	-153.04	547.11	27.388	-27.803	686.85	94.237	-41.592	531.25	260.36	-110.64	573	73.236	-76.448	143.33	66.124	95.426	667.68	65.334	-90.583	735.04	94.803	-60.584	547.01	361.84	-51.414	597.54	88.543	-2.3035	559.8	270.77	-45.958
430	2.15	271.22	1471.3	-48.394	239.5	1338.2	22.824	199.07	1071	6.9559	216.53	1236.2	152.35	182.49	867.86	-42.756	171.73	888.4	53.39	539.05	773.34	275.48	222.04	962.17	-188.11	321.03	926.77	210.46	297.24	1110.3	-233.49	479.91	450.76	-126.5	444.31	1466.8	-27.625	413.82	859.53	279.02	306.91	756.67	-297.13	359.9	727.53	-319.24	237.85	321.6	56.042	313.61	1278.5	-145.47	349.86	1117.8	247.11	362.66	1255.9	21.963	349.82	631.41	159.53	259.58	545	167.19	374.79	760.67	-266.64	285.03	24.04	16.932	316.66	1272.2	172.72	189.63	142.09	49.727	207.8	234.28	56.307	480.47	772.88	255.46	77.834	49.145	77.234	213.69	32.546	76.896	271.37	1478.8	75.188	280.04	634.92	193.59	250.34	445.28	146.32	276.12	875.24	-285.45	301.25	717.57	221.63	534.89	815.11	227.23	226.09	42.845	18.098	449.87	1475.6	49.084	381.08	724.78	-185.01	421.36	1148.9	15.287	464.11	562.04	-138.86	425.39	644.62	-160.6	193.06	234.59	127.04	360.33	975.21	284.09	135.45	77.544	14.915	249.55	997.11	-254.86	474.45	684.16	-122.62	600.93	185.45	-39.386	324.86	892.07	170.03	386.35	847.11	-152.94	559.06	27.126	-28.075	698.1	95.896	-41.073	540.07	260.3	-110.35	584.6	73.612	-76.433	143.59	66.357	95.058	679.42	67.097	-90.248	746.33	97.169	-59.729	553.86	361.83	-50.661	608.49	89.104	-2.1023	568.05	270.92	-45.426
431	2.155	276.7	1470.4	-49.149	244.97	1337.1	22.087	204.82	1069.9	6.3743	222	1235.2	151.71	188.54	867.02	-43.593	177.43	887.72	52.458	546.5	773.48	274.13	227.18	961.02	-188.37	327.49	926.02	210.11	302.32	1109.2	-234.05	485.69	449.61	-126.1	449.8	1465.8	-28.295	420.91	859.11	278.23	311.29	755.52	-297.76	364.19	726.31	-320.04	240.52	321.13	56	319.29	1277.4	-146.14	355.84	1117.2	246.53	368.2	1254.9	21.395	353.97	630.41	160.1	263.12	544.57	167.18	379.29	759.38	-267.46	285.1	24.077	16.875	322.04	1271.3	172.15	190.63	142.06	49.623	209.67	234.08	56.189	487.81	772.7	254.42	77.98	50.055	77.017	213.71	32.623	76.708	276.8	1477.8	74.455	283.94	634.38	193.62	253.55	444.85	146.26	280.76	874.14	-285.95	305.44	716.95	221.68	541.82	815.1	225.77	226.23	42.887	17.925	455.33	1474.6	48.426	386.77	723.52	-185.07	427.02	1148	15.008	469.73	560.81	-138.61	431.1	643.39	-160.61	194.72	234.59	126.91	367.02	974.6	283.48	135.89	78.042	14.739	254.43	996.03	-255.21	480.11	682.93	-122.58	610.08	185.97	-38.956	328.87	892.06	169.74	392.95	846.02	-152.81	570.23	26.908	-28.311	708.67	97.278	-40.532	548.59	260.23	-110.05	595.5	73.953	-76.376	143.85	66.68	94.747	690.41	68.627	-89.881	756.93	99.144	-58.869	560.57	361.77	-49.911	618.77	89.579	-1.8567	576.01	271	-44.884
432	2.16	282.2	1469.4	-49.942	250.45	1336.1	21.298	210.61	1068.8	5.7812	227.48	1234.3	151.03	194.64	866.23	-44.416	183.19	887.06	51.559	553.84	773.62	272.79	232.37	959.9	-188.63	333.89	925.31	209.75	307.43	1108.1	-234.64	491.56	448.56	-125.71	455.31	1464.9	-28.991	427.92	858.72	277.43	315.7	754.38	-298.37	368.5	725.11	-320.83	243.24	320.67	55.956	324.99	1276.3	-146.85	361.79	1116.6	245.92	373.77	1254	20.79	358.14	629.44	160.69	266.7	544.15	167.15	383.83	758.11	-268.27	285.17	24.114	16.809	327.42	1270.6	171.53	191.66	142.05	49.513	211.57	233.91	56.061	495.06	772.54	253.38	78.143	51.031	76.797	213.75	32.712	76.52	282.25	1476.9	73.684	287.85	633.86	193.66	256.82	444.44	146.2	285.42	873.06	-286.45	309.65	716.34	221.72	548.67	815.09	224.32	226.38	42.939	17.745	460.8	1473.7	47.739	392.49	722.33	-185.12	432.7	1147.1	14.696	475.42	559.68	-138.34	436.87	642.25	-160.61	196.42	234.63	126.78	373.66	974.03	282.86	136.35	78.585	14.56	259.33	994.98	-255.56	485.85	681.81	-122.59	618.75	186.35	-38.488	332.94	892.07	169.49	399.58	844.98	-152.63	580.59	26.709	-28.506	718.56	98.341	-39.959	556.81	260.13	-109.73	605.69	74.228	-76.272	144.13	67.1	94.502	700.63	69.879	-89.474	766.84	100.68	-57.996	567.17	361.63	-49.168	628.35	89.937	-1.5626	583.68	271.01	-44.332
